<!--?xml version="1.0" standalone="no"?-->
              <svg id="sw-js-blob-svg" viewBox="0 0 100 100" xmlns="http://www.w3.org/2000/svg" version="1.1">
                    <defs> 
                        <linearGradient id="sw-gradient" x1="0" x2="1" y1="1" y2="0">
                            <stop id="stop1" stop-color="rgba(55, 244.731, 248, 1)" offset="0%"></stop>
                            <stop id="stop2" stop-color="rgba(251, 168, 31, 1)" offset="100%"></stop>
                        </linearGradient>
                    </defs>
                <path fill="url(#sw-gradient)" d="M24.3,-32.3C30.9,-28.7,35.2,-20.8,38.4,-12.2C41.7,-3.6,43.9,5.7,42,14.3C40.2,23,34.3,31,26.6,33.8C18.9,36.6,9.5,34.2,0.4,33.7C-8.8,33.2,-17.5,34.7,-24.2,31.6C-30.9,28.5,-35.6,20.8,-36,13.2C-36.5,5.6,-32.8,-1.9,-31,-10.8C-29.2,-19.8,-29.2,-30.1,-24.4,-34.2C-19.5,-38.3,-9.8,-36.3,-0.4,-35.6C8.9,-35,17.7,-35.8,24.3,-32.3Z" width="100%" height="100%" transform="translate(50 50)" stroke-width="0" style="transition: all 0.3s ease 0s;" stroke="url(#sw-gradient)"></path>
              </svg>