<!--?xml version="1.0" standalone="no"?-->
              <svg id="sw-js-blob-svg" viewBox="0 0 100 100" xmlns="http://www.w3.org/2000/svg" version="1.1">
                    <defs> 
                        <linearGradient id="sw-gradient" x1="0" x2="1" y1="1" y2="0">
                            <stop id="stop1" stop-color="rgba(55, 244.731, 248, 1)" offset="0%"></stop>
                            <stop id="stop2" stop-color="rgba(239.511, 31, 251, 1)" offset="100%"></stop>
                        </linearGradient>
                    </defs>
                <path fill="url(#sw-gradient)" d="M18.5,-29.2C24.5,-25,30.2,-20.7,32.2,-15C34.2,-9.4,32.5,-2.5,30.9,4C29.2,10.5,27.6,16.5,24.3,22C21,27.5,16,32.4,10.3,33.3C4.5,34.3,-1.9,31.3,-9,29.6C-16.1,28,-23.9,27.8,-30.5,24.2C-37,20.6,-42.2,13.7,-44,5.9C-45.7,-1.9,-43.9,-10.6,-38.5,-15.5C-33,-20.5,-23.9,-21.8,-16.9,-25.6C-9.9,-29.3,-4.9,-35.6,0.7,-36.6C6.3,-37.6,12.6,-33.5,18.5,-29.2Z" width="100%" height="100%" transform="translate(50 50)" stroke-width="0" style="transition: all 0.3s ease 0s;" stroke="url(#sw-gradient)"></path>
              </svg>